<svg width="40" height="40" viewBox="0 0 40 40" fill="none" xmlns="http://www.w3.org/2000/svg">
<path fill-rule="evenodd" clip-rule="evenodd" d="M100 0H0V100H100V0ZM20.1281 31.0563C26.1636 31.0563 31.0563 26.1636 31.0563 20.1281C31.0563 14.0927 26.1636 9.2 20.1281 9.2C14.0927 9.2 9.2 14.0927 9.2 20.1281C9.2 26.1636 14.0927 31.0563 20.1281 31.0563ZM13.8847 19.8888C13.8847 19.8888 19.298 17.5858 21.1754 16.7749C21.8951 16.4505 24.3357 15.4125 24.3357 15.4125C24.3357 15.4125 25.4622 14.9584 25.3683 16.0613C25.3457 16.3892 25.2089 17.3092 25.0403 18.4425L25.0403 18.4426L25.0402 18.4429C24.9754 18.8789 24.9059 19.3464 24.8364 19.8239C24.4608 22.2567 24.0541 24.9164 24.0541 24.9164C24.0541 24.9164 23.9915 25.6625 23.4596 25.7922C22.9276 25.922 22.0515 25.3382 21.8951 25.2084C21.8679 25.1873 21.7422 25.1022 21.5537 24.9745L21.5533 24.9742C20.8721 24.5128 19.3717 23.4966 18.7347 22.9378C18.5157 22.7432 18.2654 22.354 18.766 21.8999C19.8925 20.8295 21.2379 19.4996 22.0515 18.6562C22.427 18.267 22.8024 17.3587 21.2379 18.4616C19.0163 20.051 16.826 21.5431 16.826 21.5431C16.826 21.5431 16.3253 21.8674 15.3866 21.5755C14.4479 21.2836 13.3527 20.8943 13.3527 20.8943C13.3527 20.8943 12.6018 20.4078 13.8847 19.8888Z" fill="#34AADF"/>
</svg>
