<svg width="24" height="24" viewBox="0 0 24 24" fill="none" xmlns="http://www.w3.org/2000/svg">
<path fill-rule="evenodd" clip-rule="evenodd" d="M8.5653 17.1855L8.82844 17.3412C10.0274 18.05 11.4278 18.3434 12.8113 18.1755C14.1949 18.0076 15.4839 17.3879 16.4775 16.413C17.4711 15.4381 18.1134 14.1627 18.3045 12.7856C18.4955 11.4085 18.2245 10.0071 17.5336 8.79971C16.8428 7.59231 15.7709 6.64677 14.4851 6.11044C13.1992 5.57412 11.7716 5.47712 10.4247 5.83459C9.07784 6.19205 7.88733 6.98388 7.03872 8.08669C6.19012 9.1895 5.73108 10.5413 5.73315 11.9315C5.73202 13.0842 6.05163 14.2146 6.65639 15.1969L6.82141 15.4683L6.18808 17.8172L8.5653 17.1855ZM14.4239 12.7568C14.6171 12.8007 14.7977 12.8881 14.952 13.0122C15.2553 13.1901 15.7504 13.4081 15.8306 13.7773C15.8641 13.9579 15.8407 14.1444 15.7637 14.3112C15.6327 14.5873 15.4356 14.8271 15.1898 15.0094C14.9441 15.1917 14.6572 15.3109 14.3543 15.3566C13.8229 15.4168 13.285 15.3322 12.7978 15.112C12.3288 14.9518 11.8798 14.7383 11.4598 14.4758C10.6227 13.9592 9.89407 13.2853 9.31447 12.4917C9.13612 12.25 8.97086 11.9991 8.8194 11.7398C8.60946 11.4014 8.4502 11.0342 8.34663 10.6499C8.30585 10.4899 8.28488 10.3256 8.28419 10.1605C8.27395 9.86662 8.32995 9.57415 8.44805 9.30468C8.56614 9.03521 8.74334 8.7956 8.96658 8.60348C9.09517 8.48933 9.25413 8.41473 9.42428 8.38868C9.59443 8.36263 9.7685 8.38624 9.9255 8.45667C10.2299 8.7132 10.4543 9.05127 10.5722 9.43094C10.7247 9.70176 10.796 10.0106 10.7774 10.3207C10.6937 10.6018 10.5403 10.8573 10.3314 11.0636C10.2717 11.1146 10.2341 11.1866 10.2267 11.2646C10.2192 11.3426 10.2423 11.4205 10.2912 11.4818C10.8646 12.4644 11.7543 13.2248 12.8156 13.6394C12.8747 13.6717 12.9435 13.6814 13.0092 13.6666C13.0749 13.6519 13.1329 13.6138 13.1724 13.5594C13.3598 13.3325 13.5471 12.8787 13.837 12.7586C14.0299 12.7134 14.2307 12.7128 14.4239 12.7568Z" fill="#272727"/>
<path fill-rule="evenodd" clip-rule="evenodd" d="M4.10522 19.8948L5.23808 15.6863C4.32446 14.0468 4.03419 12.1338 4.42055 10.2981C4.8069 8.46244 5.84396 6.82731 7.34142 5.69277C8.83887 4.55823 10.6963 4.00038 12.5728 4.12158C14.4494 4.24279 16.2191 5.03492 17.5574 6.35261C18.8957 7.67031 19.7126 9.42519 19.8584 11.2952C20.0042 13.1653 19.469 15.025 18.3511 16.5332C17.2331 18.0414 15.6074 19.0969 13.7722 19.506C11.937 19.9151 10.0154 19.6503 8.36013 18.7603L4.10522 19.8948ZM8.82844 17.3412L8.5653 17.1855L6.18808 17.8172L6.82141 15.4683L6.65639 15.1969C6.05163 14.2146 5.73202 13.0842 5.73315 11.9315C5.73108 10.5413 6.19012 9.1895 7.03872 8.08669C7.88733 6.98388 9.07784 6.19205 10.4247 5.83459C11.7716 5.47712 13.1992 5.57412 14.4851 6.11044C15.7709 6.64677 16.8428 7.59231 17.5336 8.79971C18.2245 10.0071 18.4955 11.4085 18.3045 12.7856C18.1134 14.1627 17.4711 15.4381 16.4775 16.413C15.4839 17.3879 14.1949 18.0076 12.8113 18.1755C11.4278 18.3434 10.0274 18.05 8.82844 17.3412Z" fill="#272727"/>
</svg>
