<svg width="24" height="24" viewBox="0 0 24 24" fill="none" xmlns="http://www.w3.org/2000/svg">
<path fill-rule="evenodd" clip-rule="evenodd" d="M20.7286 12.1012C20.7286 16.866 16.8659 20.7286 12.1011 20.7286C7.33629 20.7286 3.47363 16.866 3.47363 12.1012C3.47363 7.33635 7.33629 3.47369 12.1011 3.47369C16.8659 3.47369 20.7286 7.33635 20.7286 12.1012ZM12.9279 9.45386C11.4457 10.0941 7.17209 11.9122 7.17209 11.9122C6.15928 12.3219 6.75211 12.7061 6.75211 12.7061C6.75211 12.7061 7.61671 13.0134 8.35783 13.2438C9.09891 13.4743 9.49416 13.2182 9.49416 13.2182C9.49416 13.2182 11.2234 12.0403 12.9773 10.7855C14.2124 9.91481 13.916 10.6318 13.6195 10.9391C12.9773 11.6049 11.915 12.6548 11.0257 13.4999C10.6305 13.8584 10.8281 14.1657 11.001 14.3193C11.504 14.7605 12.6885 15.5628 13.2262 15.927C13.3752 16.0279 13.4746 16.0952 13.496 16.1119C13.6195 16.2143 14.3112 16.6753 14.7312 16.5728C15.1511 16.4704 15.2005 15.8814 15.2005 15.8814C15.2005 15.8814 15.5217 13.7816 15.8181 11.861C15.873 11.4839 15.9279 11.1147 15.9791 10.7705C16.1122 9.87571 16.2202 9.1494 16.2381 8.89048C16.3122 8.01983 15.4229 8.37832 15.4229 8.37832C15.4229 8.37832 13.496 9.1978 12.9279 9.45386Z" fill="#272727"/>
</svg>
