<svg width="24" height="24" viewBox="0 0 24 24" fill="none" xmlns="http://www.w3.org/2000/svg">
<path d="M7.07094 11.811C7.07094 11.811 11.3446 9.9929 12.8267 9.3527C13.3949 9.09662 15.3217 8.27715 15.3217 8.27715C15.3217 8.27715 16.211 7.91867 16.1369 8.78933C16.1191 9.04821 16.011 9.77453 15.878 10.6693C15.8268 11.0136 15.7719 11.3827 15.717 11.7598C15.4205 13.6804 15.0994 15.7802 15.0994 15.7802C15.0994 15.7802 15.05 16.3693 14.63 16.4717C14.2101 16.5741 13.5184 16.1132 13.3949 16.0107C13.3734 15.9941 13.2741 15.9268 13.1251 15.8258C12.5873 15.4616 11.4028 14.6593 10.8999 14.2182C10.727 14.0645 10.5293 13.7573 10.9246 13.3987C11.8139 12.5537 12.8761 11.5038 13.5184 10.838C13.8148 10.5307 14.1112 9.81362 12.8761 10.6843C11.1222 11.9391 9.39301 13.117 9.39301 13.117C9.39301 13.117 8.99776 13.3731 8.25667 13.1426C7.51554 12.9122 6.65094 12.6049 6.65094 12.6049C6.65094 12.6049 6.05811 12.2208 7.07094 11.811Z" fill="#272727"/>
<path fill-rule="evenodd" clip-rule="evenodd" d="M12 20.6275C16.7648 20.6275 20.6275 16.7648 20.6275 12C20.6275 7.2352 16.7648 3.37256 12 3.37256C7.2352 3.37256 3.37256 7.2352 3.37256 12C3.37256 16.7648 7.2352 20.6275 12 20.6275ZM12.8268 9.35273C11.3446 9.99293 7.07102 11.8111 7.07102 11.8111C6.05819 12.2208 6.65102 12.6049 6.65102 12.6049C6.65102 12.6049 7.51562 12.9122 8.25675 13.1427C8.99784 13.3731 9.39309 13.1171 9.39309 13.1171C9.39309 13.1171 11.1223 11.9391 12.8762 10.6843C14.1113 9.81365 13.8149 10.5307 13.5185 10.838C12.8762 11.5038 11.814 12.5537 10.9246 13.3988C10.5294 13.7573 10.727 14.0646 10.9 14.2182C11.4029 14.6593 12.5874 15.4616 13.1251 15.8259C13.2742 15.9268 13.3735 15.9941 13.395 16.0107C13.5185 16.1132 14.2102 16.5741 14.6301 16.4717C15.05 16.3693 15.0995 15.7803 15.0995 15.7803C15.0995 15.7803 15.4206 13.6805 15.7171 11.7599C15.7719 11.3828 15.8269 11.0136 15.878 10.6693C16.0111 9.77456 16.1191 9.04824 16.137 8.78936C16.2111 7.9187 15.3218 8.27718 15.3218 8.27718C15.3218 8.27718 13.395 9.09665 12.8268 9.35273Z" fill="#272727"/>
<path d="M12.0001 11.6242L16.0359 9.03158C15.8737 8.90987 15.6766 8.84346 15.4738 8.8421H8.52646C8.32363 8.84346 8.12661 8.90987 7.96436 9.03158L12.0001 11.6242Z" fill="white"/>
<path d="M12.1704 12.2653L12.1168 12.2905H12.0915C12.0624 12.3035 12.0315 12.312 11.9999 12.3158C11.9737 12.3191 11.9472 12.3191 11.921 12.3158H11.8957L11.842 12.2905L7.61044 9.55579C7.59023 9.63205 7.57962 9.71056 7.57886 9.78947V14.2105C7.57886 14.4618 7.67868 14.7027 7.85634 14.8804C8.034 15.0581 8.27498 15.1579 8.52623 15.1579H15.4736C15.7248 15.1579 15.9658 15.0581 16.1435 14.8804C16.3211 14.7027 16.421 14.4618 16.421 14.2105V9.78947C16.4202 9.71056 16.4096 9.63205 16.3894 9.55579L12.1704 12.2653Z" fill="white"/>
</svg>
